<svg xmlns="http://www.w3.org/2000/svg" id="Group_10" width="54.701" height="55.139" data-name="Group 10" viewBox="0 0 54.701 55.139">
    <defs>
        <style>
            .cls-1,.cls-3{fill:none}.cls-2{clip-path:url(#clip-path)}.cls-3{stroke:#e30613;stroke-linecap:round;stroke-linejoin:round;stroke-width:2px}
        </style>
        <clipPath id="clip-path">
            <path id="Path_4" d="M0-61.658h54.7V-116.8H0z" class="cls-1" data-name="Path 4" transform="translate(0 116.797)"/>
        </clipPath>
    </defs>
    <g id="Group_9" class="cls-2" data-name="Group 9">
        <g id="Group_8" data-name="Group 8" transform="translate(.944 .944)">
            <path id="Path_3" d="M-32.265-11.929c-3.956 0-13.157-2.407-13.246-2.431a1.077 1.077 0 0 0-.725.059c-1.184.524-1.137 2.174-1.077 4.264a14.6 14.6 0 0 1-.037 2.245c-4.2 2.63-7.266 6.082-8.554 9.562h-3.069a1.071 1.071 0 0 0-.18.015c-.568.1-1.566.532-1.87 2.393a10.4 10.4 0 0 0 .078 3.264c.386 2.32 1.43 4.8 3.2 4.8a2.036 2.036 0 0 0 .223-.014h2.419C-52 19.916-42.748 25.234-32.265 25.234c13.21 0 23.958-8.336 23.958-18.582s-10.748-18.581-23.958-18.581zM-50.6 24.209a4.494 4.494 0 0 0-.152 3.463 4.5 4.5 0 0 0 2.34 2.554 4.5 4.5 0 0 0 1.912.428 4.513 4.513 0 0 0 1.55-.276 4.5 4.5 0 0 0 2.55-2.341m20.4 0a4.5 4.5 0 0 0 2.554 2.341 4.521 4.521 0 0 0 1.55.276 4.511 4.511 0 0 0 1.911-.426 4.514 4.514 0 0 0 2.342-2.555 4.5 4.5 0 0 0-.151-3.463m-4.415-37.51a7.688 7.688 0 0 0-1.128-5.818 7.694 7.694 0 0 0-4.907-3.323 7.88 7.88 0 0 0-1.57-.16 7.7 7.7 0 0 0-4.252 1.284 7.7 7.7 0 0 0-3.32 4.91M-45.7-1.088L-47.265.476" class="cls-3" data-name="Path 3" transform="translate(61.119 22.597)"/>
        </g>
    </g>
</svg>
