<svg xmlns="http://www.w3.org/2000/svg" id="Group_24" width="67.731" height="50.568" data-name="Group 24" viewBox="0 0 67.731 50.568">
    <defs>
        <style>
            .cls-1,.cls-3,.cls-4{fill:none}.cls-2{clip-path:url(#clip-path)}.cls-3,.cls-4{stroke:#e30613;stroke-width:2px}.cls-4{stroke-linecap:round}.cls-5{fill:#e30613}
        </style>
        <clipPath id="clip-path">
            <path id="Path_11" d="M0-44.805h67.731v-50.568H0z" class="cls-1" data-name="Path 11" transform="translate(0 95.373)"/>
        </clipPath>
    </defs>
    <g id="Group_18" class="cls-2" data-name="Group 18">
        <g id="Group_14" data-name="Group 14" transform="translate(1.06 1.06)">
            <path id="Path_7" d="M-42.917-13.776A15.547 15.547 0 0 1-58.464 1.772a15.547 15.547 0 0 1-15.547-15.548 15.547 15.547 0 0 1 15.547-15.547 15.547 15.547 0 0 1 15.547 15.547zm0 0A15.547 15.547 0 0 1-58.464 1.772a15.547 15.547 0 0 1-15.547-15.548 15.547 15.547 0 0 1 15.547-15.547 15.547 15.547 0 0 1 15.547 15.547zM-70.943 8.919a10.205 10.205 0 0 1-10.205 10.2 10.205 10.205 0 0 1-10.2-10.2 10.205 10.205 0 0 1 10.2-10.2 10.205 10.205 0 0 1 10.205 10.2z" class="cls-3" data-name="Path 7" transform="translate(91.353 29.323)"/>
        </g>
        <g id="Group_15" data-name="Group 15" transform="translate(4.75 32.787)">
            <path id="Path_8" d="M-.9-8.867a6.485 6.485 0 0 1-1.013-3.493 6.5 6.5 0 0 1 2.252-4.926m2.951-1.457a6.531 6.531 0 0 1 1.31-.132" class="cls-4" data-name="Path 8" transform="translate(1.913 18.875)"/>
        </g>
        <g id="Group_16" data-name="Group 16" transform="translate(46.261 29.097)">
            <path id="Path_9" d="M-18.084-9.042a10.2 10.2 0 0 1-10.2 10.2 10.2 10.2 0 0 1-10.2-10.2 10.2 10.2 0 0 1 10.2-10.2 10.2 10.2 0 0 1 10.2 10.2z" class="cls-3" data-name="Path 9" transform="translate(38.494 19.247)"/>
        </g>
        <g id="Group_17" data-name="Group 17" transform="translate(22.903 5.561)">
            <path id="Path_10" d="M-24.863-32.991a6.485 6.485 0 0 1-1.014-3.492 6.5 6.5 0 0 1 2.252-4.927m2.951-1.456A6.532 6.532 0 0 1-19.362-43M-38.9-69.818a11.006 11.006 0 0 1 1.256.435m-6.971-.5a11.054 11.054 0 0 1 2.736-.341M-51.743-54.2a10.994 10.994 0 0 1-1.181-4.975 11.026 11.026 0 0 1 4-8.508" class="cls-4" data-name="Path 10" transform="translate(52.924 70.224)"/>
        </g>
    </g>
    <g id="Group_19" data-name="Group 19" transform="translate(18.771 27.419)">
        <path id="Path_12" d="M-3.678 0l-4.151 4.151M18 0l4.151 4.151" class="cls-3" data-name="Path 12" transform="translate(7.829)"/>
    </g>
    <g id="Group_23" class="cls-2" data-name="Group 23">
        <g id="Group_20" data-name="Group 20" transform="translate(28.369 13.316)">
            <path id="Path_13" d="M-3.965-4.784a3.725 3.725 0 0 1 .2.522 3.84 3.84 0 0 1 .113.539 4.283 4.283 0 0 1-.849.227 5.636 5.636 0 0 1-.812.054 3.415 3.415 0 0 1-1.357-.249 2.684 2.684 0 0 1-.975-.7 2.97 2.97 0 0 1-.594-1.066 4.347 4.347 0 0 1-.2-1.344 4.226 4.226 0 0 1 .208-1.347 3.174 3.174 0 0 1 .6-1.076 2.733 2.733 0 0 1 .971-.708 3.218 3.218 0 0 1 1.311-.253 5.442 5.442 0 0 1 .8.054 3.48 3.48 0 0 1 .794.227 2.011 2.011 0 0 1-.108.53c-.061.172-.128.347-.2.522A3.924 3.924 0 0 0-4.618-9a3.135 3.135 0 0 0-.58-.046 1.634 1.634 0 0 0-1.339.567A2.6 2.6 0 0 0-7.005-6.8q0 2.215 1.879 2.214a3.3 3.3 0 0 0 .591-.046 3.942 3.942 0 0 0 .572-.154" class="cls-5" data-name="Path 13" transform="translate(8.439 10.183)"/>
        </g>
        <g id="Group_21" data-name="Group 21" transform="translate(33.696 13.316)">
            <path id="Path_14" d="M-2.509-5.973a2.929 2.929 0 0 1-1.27-.254 2.378 2.378 0 0 1-.881-.7 3.049 3.049 0 0 1-.513-1.061 5.063 5.063 0 0 1-.167-1.343 5.149 5.149 0 0 1 .167-1.347 3.089 3.089 0 0 1 .513-1.076 2.363 2.363 0 0 1 .881-.708 2.937 2.937 0 0 1 1.27-.253 2.945 2.945 0 0 1 1.27.253 2.351 2.351 0 0 1 .88.708 3.07 3.07 0 0 1 .513 1.076 5.148 5.148 0 0 1 .169 1.347 5.062 5.062 0 0 1-.168 1.339A3.031 3.031 0 0 1-.359-6.93a2.366 2.366 0 0 1-.88.7 2.937 2.937 0 0 1-1.27.254m0-1.107Q-1.1-7.08-1.1-9.331a3.322 3.322 0 0 0-.34-1.687 1.147 1.147 0 0 0-1.06-.563q-1.426 0-1.425 2.25t1.416 2.251" class="cls-5" data-name="Path 14" transform="translate(5.34 12.715)"/>
        </g>
        <g id="Group_22" data-name="Group 22" transform="translate(39.998 17.595)">
            <path id="Path_15" d="M0-3.033l.773-1.01q.18-.238.322-.418c.1-.12.175-.231.241-.331a1.527 1.527 0 0 0 .148-.28.732.732 0 0 0 .05-.261.414.414 0 0 0-.155-.345.7.7 0 0 0-.436-.122 1.737 1.737 0 0 0-.2.01 1.234 1.234 0 0 0-.168.032c-.053.014-.1.031-.156.05s-.1.042-.161.066a2.6 2.6 0 0 1-.12-.3 1.339 1.339 0 0 1-.061-.312l.233-.088a1.615 1.615 0 0 1 .22-.063 2.216 2.216 0 0 1 .23-.038 2.568 2.568 0 0 1 .273-.013 2.133 2.133 0 0 1 .519.061 1.166 1.166 0 0 1 .41.188.873.873 0 0 1 .267.32 1.009 1.009 0 0 1 .1.452 1.244 1.244 0 0 1-.053.366 1.8 1.8 0 0 1-.147.346 3.675 3.675 0 0 1-.225.354c-.086.122-.183.254-.289.394l-.28.375h1.12a1.521 1.521 0 0 1 .032.313 1.625 1.625 0 0 1-.032.334H.038z" class="cls-5" data-name="Path 15" transform="translate(0 6.456)"/>
        </g>
    </g>
</svg>
